<?xml version="1.0" encoding="UTF-8"?><svg id="Layer_1" xmlns="http://www.w3.org/2000/svg" viewBox="0 0 2066 1000"><path d="m624,219v-49c0-49.33-15.67-90-47-122S506,0,458,0c-52,0-92.67,16.33-122,49-29.33,32.67-44,76.33-44,131v15c0,2.67.33,5,1,7l1,17c-49.33-35.33-93.67-53-133-53-30.67,0-60,10.33-88,31-26.67,19.33-46.33,44.67-59,76-9.33,22-14,44-14,66,0,67.33,38.67,118.67,116,154l15,7C43.67,540,0,594,0,662c0,46,16,86.33,48,121s70,52,114,52c40,0,79.67-14.33,119-43l13-10c-1.33,13.33-2,29.33-2,48,0,50,15.67,90.83,47,122.5s71,47.5,119,47.5c52.67,0,93.5-16.5,122.5-49.5s43.5-76.17,43.5-129.5v-39c49.33,35.33,93.33,53,132,53,43.33,0,80.83-17.5,112.5-52.5s47.5-75.17,47.5-120.5c0-68-38.67-119.67-116-155l-15-7c87.33-40,131-93.67,131-161,0-43.33-15.67-83-47-119s-69.17-54-113.5-54-83.5,14-117.5,42l-14,11Zm-84,169c77.33-112.67,149-169,215-169,27.33,0,52.17,12.33,74.5,37,22.33,24.67,33.5,52.33,33.5,83,0,82.67-89.33,131.67-268,147v29c88.67,7.33,155.5,23.33,200.5,48s67.5,57.67,67.5,99c0,30-10.83,57.5-32.5,82.5s-46.83,37.5-75.5,37.5c-67.33,0-139-56.67-215-170l-26,15c38,77.33,57,142.67,57,196,0,82.67-37.67,124-113,124-36,0-64-11-84-33-19.33-23.33-29-52.67-29-88,0-53.33,19-119.67,57-199l-26-15c-76,113.33-147.67,170-215,170-27.33,0-52.17-11.83-74.5-35.5s-33.5-51.83-33.5-84.5c0-82.67,89-131.67,267-147v-29c-178-14.67-267-63.67-267-147,0-29.33,10.67-56.67,32-82,21.33-25.33,46.67-38,76-38,66,0,137.67,56.33,215,169l26-14c-38-78-57-144.67-57-200,0-35.33,9.67-64.67,29-88,20-22,48-33,84-33,75.33,0,113,41,113,123,0,54-19,120-57,198l26,14Z" style="fill:#fff;"/><path d="m1774,219v-49c0-49.33-15.67-90-47-122S1656,0,1608,0c-52,0-92.67,16.33-122,49-29.33,32.67-44,76.33-44,131v15c0,2.67.33,5,1,7l1,17c-49.33-35.33-93.67-53-133-53-30.67,0-60,10.33-88,31-26.67,19.33-46.33,44.67-59,76-9.33,22-14,44-14,66,0,67.33,38.67,118.67,116,154l15,7c-87.33,40-131,94-131,162,0,46,16,86.33,48,121s70,52,114,52c40,0,79.67-14.33,119-43l13-10c-1.33,13.33-2,29.33-2,48,0,50,15.67,90.83,47,122.5s71,47.5,119,47.5c52.67,0,93.5-16.5,122.5-49.5s43.5-76.17,43.5-129.5v-39c49.33,35.33,93.33,53,132,53,43.33,0,80.83-17.5,112.5-52.5s47.5-75.17,47.5-120.5c0-68-38.67-119.67-116-155l-15-7c87.33-40,131-93.67,131-161,0-43.33-15.67-83-47-119s-69.17-54-113.5-54-83.5,14-117.5,42l-14,11Zm-84,169c77.33-112.67,149-169,215-169,27.33,0,52.17,12.33,74.5,37,22.33,24.67,33.5,52.33,33.5,83,0,82.67-89.33,131.67-268,147v29c88.67,7.33,155.5,23.33,200.5,48s67.5,57.67,67.5,99c0,30-10.83,57.5-32.5,82.5s-46.83,37.5-75.5,37.5c-67.33,0-139-56.67-215-170l-26,15c38,77.33,57,142.67,57,196,0,82.67-37.67,124-113,124-36,0-64-11-84-33-19.33-23.33-29-52.67-29-88,0-53.33,19-119.67,57-199l-26-15c-76,113.33-147.67,170-215,170-27.33,0-52.17-11.83-74.5-35.5s-33.5-51.83-33.5-84.5c0-82.67,89-131.67,267-147v-29c-178-14.67-267-63.67-267-147,0-29.33,10.67-56.67,32-82,21.33-25.33,46.67-38,76-38,66,0,137.67,56.33,215,169l26-14c-38-78-57-144.67-57-200,0-35.33,9.67-64.67,29-88,20-22,48-33,84-33,75.33,0,113,41,113,123,0,54-19,120-57,198l26,14Z" style="fill:#fff;"/></svg>